<svg xmlns="http://www.w3.org/2000/svg" width="250" height="250" viewBox="0 0 512 512" id="paper"><path fill="#00acea" d="M423.79,100.69c38.63,0,69.94,58.76,69.94,131.25s-31.31,131.25-69.94,131.25-69.94-58.77-69.94-131.25S385.16,100.69,423.79,100.69Zm23.16,131.25c0-24.08-10.37-43.6-23.16-43.6s-23.16,19.52-23.16,43.6,10.37,43.59,23.16,43.59S446.95,256.02,446.95,231.94Z"></path><path fill="#00efd1" d="M423.79,188.34c12.79,0,23.16,19.52,23.16,43.6s-10.37,43.59-23.16,43.59-23.16-19.51-23.16-43.59S411,188.34,423.79,188.34Z"></path><path fill="#fedb41" d="M103.63,100.69H423.79c-38.63,0-69.94,58.76-69.94,131.25L352.4,363.17l-.53,48.14H18.27l5.96-231.22A79.4,79.4,0,0,1,103.63,100.69Z"></path><path fill="#00efd1" d="M423.79,363.19H353.85l-1.45-.02,1.45-131.23C353.85,304.42,385.16,363.19,423.79,363.19Z"></path><path fill="#083863" d="M427,92.779V93H103.63a87.367,87.367,0,0,0-87.4,87.139L10.272,411.182a7.563,7.563,0,0,0,2.269,5.595A7.822,7.822,0,0,0,18.27,419h333.6a7.95,7.95,0,0,0,8-7.852L360.313,371H423.79c21.779,0,41.85-15.064,56.517-42.588,13.815-25.927,21.423-60.175,21.423-96.52s-7.363-70.62-21.178-96.547C466.5,108.973,447,93.988,427,92.779ZM26.479,403l5.749-222.859c0-.069,0,.095,0,.026A71.282,71.282,0,0,1,103.63,109H386.994a104.594,104.594,0,0,0-19.721,26.524c-13.8,25.905-21.409,60.089-21.422,96.405v-.194L343.958,403ZM360.49,355l.445-40.172a149.366,149.366,0,0,0,6.338,13.536A105.264,105.264,0,0,0,387,355Zm63.3.19c-33.575,0-61.94-56.441-61.94-123.25s28.365-123.25,61.94-123.25,61.94,56.441,61.94,123.25S457.365,355.19,423.79,355.19Z"></path><path fill="#083863" d="M423.79,180.34c-17.764,0-31.16,22.183-31.16,51.6s13.4,51.59,31.16,51.59,31.16-22.179,31.16-51.59S441.554,180.34,423.79,180.34Zm0,87.19c-6.181,0-15.16-13.864-15.16-35.59s8.979-35.6,15.16-35.6,15.16,13.868,15.16,35.6S429.971,267.53,423.79,267.53Z"></path></svg>